<svg id="Group_239" data-name="Group 239" xmlns="http://www.w3.org/2000/svg" xmlns:xlink="http://www.w3.org/1999/xlink" width="1280" height="800" viewBox="0 0 1280 800">
  <defs>
    <linearGradient id="linear-gradient" x1="0.5" y1="-0.155" x2="0.5" y2="1.118" gradientUnits="objectBoundingBox">
      <stop offset="0" stop-color="#385eff"/>
      <stop offset="1" stop-color="#4dd6ff"/>
    </linearGradient>
    <clipPath id="clip-path">
      <rect id="bg" width="1280" height="800" fill="url(#linear-gradient)"/>
    </clipPath>
  </defs>
  <rect id="bg-2" data-name="bg" width="1280" height="800" fill="url(#linear-gradient)"/>
  <g id="Mask_Group_10" data-name="Mask Group 10" clip-path="url(#clip-path)">
    <g id="Pattern" transform="translate(0 -12.204)" opacity="0.2">
      <g id="_1" data-name="1" transform="translate(1082.399 -151.126) rotate(17)" fill="none" opacity="0.5">
        <path d="M194.033-50,388.067,386.574,194.033,540.184,0,386.574Z" stroke="none"/>
        <path d="M 194.0332641601562 -45.0755615234375 L 2.45758056640625 385.96923828125 L 194.0332641601562 537.6331787109375 L 385.6088562011719 385.96923828125 L 194.0332641601562 -45.0755615234375 M 194.0332641601562 -50 L 388.0664978027344 386.574462890625 L 194.0332641601562 540.1840209960938 L -3.0517578125e-05 386.574462890625 L 194.0332641601562 -50 Z" stroke="none" fill="#fff"/>
      </g>
      <g id="_2" data-name="2" transform="matrix(0.469, 0.883, -0.883, 0.469, 716.92, -74.654)" fill="none" opacity="0.5">
        <path d="M66.461-50,132.923,99.538,66.461,152.153,0,99.538Z" stroke="none"/>
        <path d="M 66.46128845214844 -45.07553100585938 L 2.4576416015625 98.93255615234375 L 66.46128845214844 149.6020202636719 L 130.4649353027344 98.93255615234375 L 66.46128845214844 -45.07553100585938 M 66.46128845214844 -50 L 132.9225769042969 99.53779602050781 L 66.46128845214844 152.1528930664062 L 0 99.53779602050781 L 66.46128845214844 -50 Z" stroke="none" fill="#fff"/>
      </g>
      <g id="_3" data-name="3" transform="translate(-144.411 224.09) rotate(-76)" fill="none" opacity="0.5">
        <path d="M200.861-50,401.722,401.937,200.861,560.953,0,401.937Z" stroke="none"/>
        <path d="M 200.8612365722656 -45.0755615234375 L 2.4576416015625 401.332275390625 L 200.8612365722656 558.4016723632812 L 399.2648315429688 401.332275390625 L 200.8612365722656 -45.0755615234375 M 200.8612365722656 -50 L 401.7224731445312 401.9375 L 200.8612365722656 560.9525146484375 L 0 401.9375 L 200.8612365722656 -50 Z" stroke="none" fill="#fff"/>
      </g>
      <g id="_4" data-name="4" transform="matrix(0.682, 0.731, -0.731, 0.682, 190.478, 580.244)" fill="none" opacity="0.5">
        <path d="M108.481-50,216.963,194.083,108.481,279.964,0,194.083Z" stroke="none"/>
        <path d="M 108.4814758300781 -45.0755615234375 L 2.457611083984375 193.4779205322266 L 108.4814758300781 277.4133605957031 L 214.5052947998047 193.4779205322266 L 108.4814758300781 -45.0755615234375 M 108.4814758300781 -50 L 216.9629364013672 194.0831604003906 L 108.4814758300781 279.9642333984375 L -3.0517578125e-05 194.0831604003906 L 108.4814758300781 -50 Z" stroke="none" fill="#fff"/>
      </g>
      <g id="_5" data-name="5" transform="matrix(0.829, -0.559, 0.559, 0.829, 817.031, 754.796)" fill="none" opacity="0.5">
        <path d="M100.258-50,200.517,175.581,100.258,254.952,0,175.581Z" stroke="none"/>
        <path d="M 100.2582626342773 -45.0755615234375 L 2.457656860351562 174.9757080078125 L 100.2582626342773 252.401123046875 L 198.0588684082031 174.9757080078125 L 100.2582626342773 -45.0755615234375 M 100.2582626342773 -50 L 200.5165100097656 175.5809631347656 L 100.2582626342773 254.9519958496094 L 1.52587890625e-05 175.5809631347656 L 100.2582626342773 -50 Z" stroke="none" fill="#fff"/>
      </g>
      <g id="_6" data-name="6" transform="translate(541.018 993.116) rotate(-137)" fill="none" opacity="0.5">
        <path d="M162.565-50,325.129,315.77l-162.565,128.7L0,315.77Z" stroke="none"/>
        <path d="M 162.5645446777344 -45.07559204101562 L 2.45758056640625 315.164794921875 L 162.5645446777344 441.9159240722656 L 322.6715087890625 315.164794921875 L 162.5645446777344 -45.07559204101562 M 162.5645446777344 -50 L 325.1291198730469 315.7699890136719 L 162.5645446777344 444.4667358398438 L -3.0517578125e-05 315.7699890136719 L 162.5645446777344 -50 Z" stroke="none" fill="#fff"/>
      </g>
      <g id="_7" data-name="7" transform="translate(-46.57 351.396) rotate(-27)" fill="none" opacity="0.5">
        <path d="M91.078-50l91.078,204.924-91.078,72.1L0,154.924Z" stroke="none"/>
        <path d="M 91.07752990722656 -45.07562255859375 L 2.457626342773438 154.3190155029297 L 91.07752990722656 224.4763488769531 L 179.6974334716797 154.3190155029297 L 91.07752990722656 -45.07562255859375 M 91.07752990722656 -50.00001525878906 L 182.1550598144531 154.9242706298828 L 91.07752990722656 227.0272369384766 L 0 154.9242706298828 L 91.07752990722656 -50.00001525878906 Z" stroke="none" fill="#fff"/>
      </g>
      <g id="_8" data-name="8" transform="translate(1119.674 634.238) rotate(-32)" fill="none" opacity="0.5">
        <path d="M92.913-50l92.913,209.055L92.913,232.611,0,159.055Z" stroke="none"/>
        <path d="M 92.913330078125 -45.07560729980469 L 2.457611083984375 158.4495544433594 L 92.913330078125 230.0602722167969 L 183.3690185546875 158.4495544433594 L 92.913330078125 -45.07560729980469 M 92.913330078125 -50 L 185.8266448974609 159.0548095703125 L 92.913330078125 232.6111450195312 L -1.52587890625e-05 159.0548095703125 L 92.913330078125 -50 Z" stroke="none" fill="#fff"/>
      </g>
    </g>
  </g>
</svg>
