<svg xmlns="http://www.w3.org/2000/svg" xmlns:xlink="http://www.w3.org/1999/xlink" width="78.882" height="78.882" viewBox="0 0 78.882 78.882">
  <defs>
    <linearGradient id="linear-gradient" x1="0.088" y1="0.912" x2="0.935" y2="0.065" gradientUnits="objectBoundingBox">
      <stop offset="0" stop-color="#5f52ff"/>
      <stop offset="1" stop-color="#27a1e3"/>
    </linearGradient>
    <filter id="bg" x="2.027" y="0.027" width="74.829" height="74.829" filterUnits="userSpaceOnUse">
      <feOffset dy="6" input="SourceAlpha"/>
      <feGaussianBlur stdDeviation="4" result="blur"/>
      <feFlood flood-color="#1824b1" flood-opacity="0.102"/>
      <feComposite operator="in" in2="blur"/>
    </filter>
    <filter id="bg-2" x="2.027" y="0.027" width="74.829" height="74.829" filterUnits="userSpaceOnUse">
      <feOffset dy="2" input="SourceAlpha"/>
      <feGaussianBlur stdDeviation="3" result="blur-2"/>
      <feFlood flood-color="#9bfffb" flood-opacity="0.212" result="color"/>
      <feComposite operator="out" in="SourceGraphic" in2="blur-2"/>
      <feComposite operator="in" in="color"/>
      <feComposite operator="in" in2="SourceGraphic"/>
    </filter>
    <linearGradient id="linear-gradient-3" x1="0.973" y1="0.027" x2="0.023" y2="0.977" gradientUnits="objectBoundingBox">
      <stop offset="0" stop-color="#4ef1ff"/>
      <stop offset="1" stop-color="#505eff" stop-opacity="0"/>
    </linearGradient>
    <filter id="bg-3" x="0" y="0" width="78.882" height="78.882" filterUnits="userSpaceOnUse">
      <feOffset dy="8" input="SourceAlpha"/>
      <feGaussianBlur stdDeviation="6" result="blur-3"/>
      <feFlood flood-color="#000dad" flood-opacity="0.102"/>
      <feComposite operator="in" in2="blur-3"/>
      <feComposite in="SourceGraphic"/>
    </filter>
  </defs>
  <g id="Delet" transform="translate(15.489 7.428)">
    <g data-type="innerShadowGroup">
      <g transform="matrix(1, 0, 0, 1, -15.49, -7.43)" filter="url(#bg)">
        <g id="bg-4" data-name="bg" transform="translate(63.44 31.44) rotate(135)" fill="url(#linear-gradient)">
          <path d="M 7.1504225730896 34.4412727355957 C 5.103122711181641 34.4412727355957 3.18003249168396 33.64448165893555 1.73541259765625 32.19767379760742 C 0.290802538394928 30.75089263916016 -0.5030774474143982 28.82652282714844 -0.4999874532222748 26.77906227111816 L -0.4705374538898468 7.211752414703369 C -0.4641774594783783 2.982082605361938 2.982082605361938 -0.4641774594783783 7.211752414703369 -0.4705374538898468 L 26.77906227111816 -0.4999874532222748 L 26.79085350036621 -0.4999974370002747 C 28.8381519317627 -0.4999974370002747 30.7612419128418 0.2967925667762756 32.20586395263672 1.743582606315613 C 33.65046310424805 3.190362453460693 34.44434356689453 5.11473274230957 34.44126129150391 7.16220235824585 L 34.41180419921875 26.72952270507812 C 34.40544128417969 30.95918273925781 30.95918273925781 34.40544128417969 26.72952270507812 34.41180419921875 L 7.16220235824585 34.44126129150391 L 7.1504225730896 34.4412727355957 Z" stroke="none"/>
          <path d="M 26.79083824157715 -7.62939453125e-06 C 26.78721237182617 -7.62939453125e-06 26.78343963623047 -3.814697265625e-06 26.77981185913086 3.814697265625e-06 L 7.212503433227539 0.02946090698242188 C 3.251382827758789 0.03542327880859375 0.03542327880859375 3.251382827758789 0.02946090698242188 7.212503433227539 L 3.814697265625e-06 26.77981185913086 C -0.00595855712890625 30.74093246459961 3.198417663574219 33.94721984863281 7.161453247070312 33.94125366210938 L 26.72876358032227 33.91180419921875 C 30.68988227844238 33.90583419799805 33.90583419799805 30.68988227844238 33.91180419921875 26.72876358032227 L 33.94125366210938 7.161453247070312 C 33.94721603393555 3.203958511352539 30.7469482421875 -7.62939453125e-06 26.79083824157715 -7.62939453125e-06 M 26.79084205627441 -1.000007629394531 C 28.97183227539062 -1.000007629394531 31.02058219909668 -0.1511192321777344 32.55967330932617 1.390293121337891 C 34.0987434387207 2.931682586669922 34.94453430175781 4.981792449951172 34.94125366210938 7.162961959838867 L 34.91180419921875 26.73027229309082 C 34.90501403808594 31.23479270935059 31.23479270935059 34.90501403808594 26.73027229309082 34.91180419921875 L 7.150411605834961 34.94126129150391 C 4.969423294067383 34.94126129150391 2.920682907104492 34.09237289428711 1.381591796875 32.55097198486328 C -0.1574783325195312 31.00958251953125 -1.003276824951172 28.95948219299316 -0.9999961853027344 26.77831268310547 L -0.9705390930175781 7.210992813110352 C -0.9637565612792969 2.706462860107422 2.706462860107422 -0.9637565612792969 7.211002349853516 -0.9705390930175781 L 26.79084205627441 -1.000007629394531 Z" stroke="none" fill="#79faff"/>
        </g>
      </g>
      <g id="bg-5" data-name="bg" transform="translate(47.953 24.013) rotate(135)" fill="url(#linear-gradient)">
        <path d="M 7.1504225730896 34.4412727355957 C 5.103122711181641 34.4412727355957 3.18003249168396 33.64448165893555 1.73541259765625 32.19767379760742 C 0.290802538394928 30.75089263916016 -0.5030774474143982 28.82652282714844 -0.4999874532222748 26.77906227111816 L -0.4705374538898468 7.211752414703369 C -0.4641774594783783 2.982082605361938 2.982082605361938 -0.4641774594783783 7.211752414703369 -0.4705374538898468 L 26.77906227111816 -0.4999874532222748 L 26.79085350036621 -0.4999974370002747 C 28.8381519317627 -0.4999974370002747 30.7612419128418 0.2967925667762756 32.20586395263672 1.743582606315613 C 33.65046310424805 3.190362453460693 34.44434356689453 5.11473274230957 34.44126129150391 7.16220235824585 L 34.41180419921875 26.72952270507812 C 34.40544128417969 30.95918273925781 30.95918273925781 34.40544128417969 26.72952270507812 34.41180419921875 L 7.16220235824585 34.44126129150391 L 7.1504225730896 34.4412727355957 Z" stroke="none"/>
        <path d="M 26.79083824157715 -7.62939453125e-06 C 26.78721237182617 -7.62939453125e-06 26.78343963623047 -3.814697265625e-06 26.77981185913086 3.814697265625e-06 L 7.212503433227539 0.02946090698242188 C 3.251382827758789 0.03542327880859375 0.03542327880859375 3.251382827758789 0.02946090698242188 7.212503433227539 L 3.814697265625e-06 26.77981185913086 C -0.00595855712890625 30.74093246459961 3.198417663574219 33.94721984863281 7.161453247070312 33.94125366210938 L 26.72876358032227 33.91180419921875 C 30.68988227844238 33.90583419799805 33.90583419799805 30.68988227844238 33.91180419921875 26.72876358032227 L 33.94125366210938 7.161453247070312 C 33.94721603393555 3.203958511352539 30.7469482421875 -7.62939453125e-06 26.79083824157715 -7.62939453125e-06 M 26.79084205627441 -1.000007629394531 C 28.97183227539062 -1.000007629394531 31.02058219909668 -0.1511192321777344 32.55967330932617 1.390293121337891 C 34.0987434387207 2.931682586669922 34.94453430175781 4.981792449951172 34.94125366210938 7.162961959838867 L 34.91180419921875 26.73027229309082 C 34.90501403808594 31.23479270935059 31.23479270935059 34.90501403808594 26.73027229309082 34.91180419921875 L 7.150411605834961 34.94126129150391 C 4.969423294067383 34.94126129150391 2.920682907104492 34.09237289428711 1.381591796875 32.55097198486328 C -0.1574783325195312 31.00958251953125 -1.003276824951172 28.95948219299316 -0.9999961853027344 26.77831268310547 L -0.9705390930175781 7.210992813110352 C -0.9637565612792969 2.706462860107422 2.706462860107422 -0.9637565612792969 7.211002349853516 -0.9705390930175781 L 26.79084205627441 -1.000007629394531 Z" stroke="none"/>
      </g>
      <g transform="matrix(1, 0, 0, 1, -15.49, -7.43)" filter="url(#bg-2)">
        <g id="bg-6" data-name="bg" transform="translate(63.44 31.44) rotate(135)" fill="#fff">
          <path d="M 7.1504225730896 34.4412727355957 C 5.103122711181641 34.4412727355957 3.18003249168396 33.64448165893555 1.73541259765625 32.19767379760742 C 0.290802538394928 30.75089263916016 -0.5030774474143982 28.82652282714844 -0.4999874532222748 26.77906227111816 L -0.4705374538898468 7.211752414703369 C -0.4641774594783783 2.982082605361938 2.982082605361938 -0.4641774594783783 7.211752414703369 -0.4705374538898468 L 26.77906227111816 -0.4999874532222748 L 26.79085350036621 -0.4999974370002747 C 28.8381519317627 -0.4999974370002747 30.7612419128418 0.2967925667762756 32.20586395263672 1.743582606315613 C 33.65046310424805 3.190362453460693 34.44434356689453 5.11473274230957 34.44126129150391 7.16220235824585 L 34.41180419921875 26.72952270507812 C 34.40544128417969 30.95918273925781 30.95918273925781 34.40544128417969 26.72952270507812 34.41180419921875 L 7.16220235824585 34.44126129150391 L 7.1504225730896 34.4412727355957 Z" stroke="none"/>
          <path d="M 26.79083824157715 -7.62939453125e-06 C 26.78721237182617 -7.62939453125e-06 26.78343963623047 -3.814697265625e-06 26.77981185913086 3.814697265625e-06 L 7.212503433227539 0.02946090698242188 C 3.251382827758789 0.03542327880859375 0.03542327880859375 3.251382827758789 0.02946090698242188 7.212503433227539 L 3.814697265625e-06 26.77981185913086 C -0.00595855712890625 30.74093246459961 3.198417663574219 33.94721984863281 7.161453247070312 33.94125366210938 L 26.72876358032227 33.91180419921875 C 30.68988227844238 33.90583419799805 33.90583419799805 30.68988227844238 33.91180419921875 26.72876358032227 L 33.94125366210938 7.161453247070312 C 33.94721603393555 3.203958511352539 30.7469482421875 -7.62939453125e-06 26.79083824157715 -7.62939453125e-06 M 26.79084205627441 -1.000007629394531 C 28.97183227539062 -1.000007629394531 31.02058219909668 -0.1511192321777344 32.55967330932617 1.390293121337891 C 34.0987434387207 2.931682586669922 34.94453430175781 4.981792449951172 34.94125366210938 7.162961959838867 L 34.91180419921875 26.73027229309082 C 34.90501403808594 31.23479270935059 31.23479270935059 34.90501403808594 26.73027229309082 34.91180419921875 L 7.150411605834961 34.94126129150391 C 4.969423294067383 34.94126129150391 2.920682907104492 34.09237289428711 1.381591796875 32.55097198486328 C -0.1574783325195312 31.00958251953125 -1.003276824951172 28.95948219299316 -0.9999961853027344 26.77831268310547 L -0.9705390930175781 7.210992813110352 C -0.9637565612792969 2.706462860107422 2.706462860107422 -0.9637565612792969 7.211002349853516 -0.9705390930175781 L 26.79084205627441 -1.000007629394531 Z" stroke="none"/>
        </g>
      </g>
      <g id="bg-7" data-name="bg" transform="translate(47.953 24.013) rotate(135)" fill="none">
        <path d="M 7.1504225730896 34.4412727355957 C 5.103122711181641 34.4412727355957 3.18003249168396 33.64448165893555 1.73541259765625 32.19767379760742 C 0.290802538394928 30.75089263916016 -0.5030774474143982 28.82652282714844 -0.4999874532222748 26.77906227111816 L -0.4705374538898468 7.211752414703369 C -0.4641774594783783 2.982082605361938 2.982082605361938 -0.4641774594783783 7.211752414703369 -0.4705374538898468 L 26.77906227111816 -0.4999874532222748 L 26.79085350036621 -0.4999974370002747 C 28.8381519317627 -0.4999974370002747 30.7612419128418 0.2967925667762756 32.20586395263672 1.743582606315613 C 33.65046310424805 3.190362453460693 34.44434356689453 5.11473274230957 34.44126129150391 7.16220235824585 L 34.41180419921875 26.72952270507812 C 34.40544128417969 30.95918273925781 30.95918273925781 34.40544128417969 26.72952270507812 34.41180419921875 L 7.16220235824585 34.44126129150391 L 7.1504225730896 34.4412727355957 Z" stroke="none"/>
        <path d="M 26.79083824157715 -7.62939453125e-06 C 26.78721237182617 -7.62939453125e-06 26.78343963623047 -3.814697265625e-06 26.77981185913086 3.814697265625e-06 L 7.212503433227539 0.02946090698242188 C 3.251382827758789 0.03542327880859375 0.03542327880859375 3.251382827758789 0.02946090698242188 7.212503433227539 L 3.814697265625e-06 26.77981185913086 C -0.00595855712890625 30.74093246459961 3.198417663574219 33.94721984863281 7.161453247070312 33.94125366210938 L 26.72876358032227 33.91180419921875 C 30.68988227844238 33.90583419799805 33.90583419799805 30.68988227844238 33.91180419921875 26.72876358032227 L 33.94125366210938 7.161453247070312 C 33.94721603393555 3.203958511352539 30.7469482421875 -7.62939453125e-06 26.79083824157715 -7.62939453125e-06 M 26.79084205627441 -1.000007629394531 C 28.97183227539062 -1.000007629394531 31.02058219909668 -0.1511192321777344 32.55967330932617 1.390293121337891 C 34.0987434387207 2.931682586669922 34.94453430175781 4.981792449951172 34.94125366210938 7.162961959838867 L 34.91180419921875 26.73027229309082 C 34.90501403808594 31.23479270935059 31.23479270935059 34.90501403808594 26.73027229309082 34.91180419921875 L 7.150411605834961 34.94126129150391 C 4.969423294067383 34.94126129150391 2.920682907104492 34.09237289428711 1.381591796875 32.55097198486328 C -0.1574783325195312 31.00958251953125 -1.003276824951172 28.95948219299316 -0.9999961853027344 26.77831268310547 L -0.9705390930175781 7.210992813110352 C -0.9637565612792969 2.706462860107422 2.706462860107422 -0.9637565612792969 7.211002349853516 -0.9705390930175781 L 26.79084205627441 -1.000007629394531 Z" stroke="none" fill="#79faff"/>
      </g>
    </g>
    <g transform="matrix(1, 0, 0, 1, -15.49, -7.43)" filter="url(#bg-3)">
      <path id="bg-8" data-name="bg" d="M6.013.028,24.354,0a5.955,5.955,0,0,1,5.968,5.968l-.028,18.341a6,6,0,0,1-5.986,5.986l-18.341.028A5.955,5.955,0,0,1,0,24.354L.028,6.013A6,6,0,0,1,6.013.028Z" transform="translate(60.88 31.44) rotate(135)" opacity="0.6" fill="url(#linear-gradient-3)"/>
    </g>
    <path id="Delete-6" d="M267.941,1359.167a2.81,2.81,0,0,1-2.833-2.73l-.123-1.215-.214-2.358-.219-2.587-.25-3.106a.718.718,0,0,1,.645-.779.708.708,0,0,1,.744.567l.029.284.236,2.913.256,3.018c.116,1.307.215,2.365.3,3.107a1.4,1.4,0,0,0,1.357,1.443c.036,0,.071,0,.107,0,2.359.051,4.789.052,7.318,0a1.422,1.422,0,0,0,1.522-1.315,1.327,1.327,0,0,0,0-.139l.122-1.209c.036-.373.073-.785.114-1.231l.257-2.968.309-3.808a.716.716,0,0,1,.662-.665h.1a.714.714,0,0,1,.646.681l-.01.2-.3,3.717-.313,3.628c-.066.725-.127,1.335-.178,1.815a2.832,2.832,0,0,1-2.9,2.743q-1.863.034-3.656.035Q269.768,1359.206,267.941,1359.167Zm8.61-14.447H263.705a.726.726,0,0,1-.1-1.438l.1-.006h3.065a.845.845,0,0,0,.8-.589l.028-.107.238-1.219a1.92,1.92,0,0,1,1.69-1.451l.151-.006h3.971a1.914,1.914,0,0,1,1.805,1.342l.046.156.229,1.173a.851.851,0,0,0,.717.69l.109.007h3.066a.725.725,0,0,1,.1,1.441l-.1.007Zm-2.086-1.448a2.3,2.3,0,0,1-.083-.253l-.037-.16-.218-1.128a.5.5,0,0,0-.4-.372l-.083-.008h-3.972a.506.506,0,0,0-.446.268l-.025.065-.227,1.175a2.347,2.347,0,0,1-.119.412Z" transform="translate(-247.737 -1325.542)" fill="#fff"/>
  </g>
</svg>
