<svg xmlns="http://www.w3.org/2000/svg" xmlns:xlink="http://www.w3.org/1999/xlink" width="100" height="108" viewBox="0 0 100 108">
  <defs>
    <filter id="bg" x="0" y="0" width="100" height="108" filterUnits="userSpaceOnUse">
      <feOffset dy="10" input="SourceAlpha"/>
      <feGaussianBlur stdDeviation="6" result="blur"/>
      <feFlood flood-color="#002ef0" flood-opacity="0.102"/>
      <feComposite operator="in" in2="blur"/>
      <feComposite in="SourceGraphic"/>
    </filter>
  </defs>
  <g id="Icon" transform="translate(18 8)">
    <g transform="matrix(1, 0, 0, 1, -18, -8)" filter="url(#bg)">
      <g id="bg-2" data-name="bg" transform="translate(82 8) rotate(90)" fill="#2468ff">
        <path d="M 48.15153121948242 63 L 23.84847068786621 63 C 20.60174942016602 63 17.59604072570801 61.24211883544922 16.00429916381836 58.41234970092773 L 3.629300117492676 36.41234970092773 C 2.873150110244751 35.06808853149414 2.473479986190796 33.54232025146484 2.473479986190796 32 C 2.473479986190796 30.45767021179199 2.873150110244751 28.93190002441406 3.629300117492676 27.58765029907227 L 16.00431060791016 5.587649822235107 C 17.59605026245117 2.757879972457886 20.60176086425781 1 23.84848022460938 1 L 48.15151977539062 1 C 51.39825057983398 1 54.40396118164062 2.757879972457886 55.99570083618164 5.587649822235107 L 68.37069702148438 27.58765029907227 C 69.12684631347656 28.93190956115723 69.52652740478516 30.45767021179199 69.52652740478516 32 C 69.52652740478516 33.54233169555664 69.12684631347656 35.06808853149414 68.37071228027344 36.41234970092773 L 55.99570083618164 58.41234970092773 C 54.40396118164062 61.24211883544922 51.39825057983398 63 48.15153121948242 63 Z" stroke="none"/>
        <path d="M 23.84847640991211 2 C 20.96250152587891 2 18.29075622558594 3.562564849853516 16.87587738037109 6.077911376953125 L 4.500869750976562 28.07791137695312 C 3.828742980957031 29.27281188964844 3.473464965820312 30.62904357910156 3.473464965820312 32 C 3.473464965820312 33.37095642089844 3.828742980957031 34.72718811035156 4.500877380371094 35.92208862304688 L 16.8758544921875 57.92208862304688 C 18.29075622558594 60.43743133544922 20.96250152587891 62 23.84846496582031 62 L 48.15151977539062 62 C 51.03749847412109 62 53.70924377441406 60.43743133544922 55.12412261962891 57.92208862304688 L 67.49912261962891 35.92208862304688 C 68.17125701904297 34.72719955444336 68.52651977539062 33.37095642089844 68.52651977539062 32 C 68.52651977539062 30.62904357910156 68.17125701904297 29.27280044555664 67.49912261962891 28.07791137695312 L 55.12412261962891 6.077911376953125 C 53.70925521850586 3.562564849853516 51.03751373291016 2 48.15151977539062 2 L 23.84847640991211 2 M 23.84847640991211 0 L 48.15151977539062 0 C 51.76425552368164 0 55.09609985351562 1.948612213134766 56.86727905273438 5.097389221191406 L 69.24227905273438 27.09738922119141 C 70.95459747314453 30.14152145385742 70.95459747314453 33.85847854614258 69.24227905273438 36.90261077880859 L 56.86727905273438 58.90261077880859 C 55.09609985351562 62.05137634277344 51.76425552368164 64 48.15151977539062 64 L 23.84846496582031 64 C 20.23574447631836 64 16.90390014648438 62.05137634277344 15.13270950317383 58.90261077880859 L 2.757720947265625 36.90261077880859 C 1.045387268066406 33.85847854614258 1.045387268066406 30.14152145385742 2.757720947265625 27.09738922119141 L 15.13272094726562 5.097389221191406 C 16.90391159057617 1.948612213134766 20.23574447631836 0 23.84847640991211 0 Z" stroke="none" fill="#58acff"/>
      </g>
    </g>
    <path id="Icon-2" data-name="Icon" d="M665.226,805.427a1.142,1.142,0,0,0-.077-.377,1.192,1.192,0,0,0-.688-1.519l-8.161-3.185,0,0-.029-.011a1.159,1.159,0,0,0-.428-.082l-.006,0c-.029,0-.053.014-.08.016a1.225,1.225,0,0,0-.339.059l-8.175,3.043-8.175-3.043a1.279,1.279,0,0,0-.328-.058c-.032,0-.059-.018-.091-.018l-.006,0a1.193,1.193,0,0,0-.428.082l-.029.011,0,0-8.161,3.185a1.192,1.192,0,0,0-.688,1.519,1.144,1.144,0,0,0-.077.377v23.2a10.571,10.571,0,0,1,.082.435l.01.014a1.168,1.168,0,0,0,.165.258c.034.043.054.1.091.136a1.278,1.278,0,0,0,.181.123,1.168,1.168,0,0,0,.2.134,1.115,1.115,0,0,0,.149.034,1.2,1.2,0,0,0,.309.062l.016,0a1.1,1.1,0,0,0,.229-.046,1.008,1.008,0,0,0,.206-.037l.029-.011,0,0,7.736-3.017,8.166,3.038a1.2,1.2,0,0,0,.838,0l8.166-3.038,7.736,3.017,0,0,.029.011a1.188,1.188,0,0,0,.435.083,1.16,1.16,0,0,0,.417-.085.977.977,0,0,0,.117-.054,1.239,1.239,0,0,0,.248-.168c.032-.029.064-.054.094-.086a1.221,1.221,0,0,0,.189-.278c.013-.027.032-.048.043-.077l.01-.016a10.57,10.57,0,0,1,.081-.435Zm-33.578.039,5.8-2.261v21.41l-5.8,2.263Zm8.195-2.291,6.2,2.306v21.426l-6.2-2.306Zm8.594,2.306,6.2-2.306V824.6l-6.2,2.306Zm8.594-2.275,5.8,2.261v21.411l-5.8-2.263Z" transform="translate(-614.826 -780.707)" fill="#fff"/>
  </g>
</svg>
