<svg xmlns="http://www.w3.org/2000/svg" xmlns:xlink="http://www.w3.org/1999/xlink" width="100" height="108" viewBox="0 0 100 108">
  <defs>
    <filter id="bg" x="0" y="0" width="100" height="108" filterUnits="userSpaceOnUse">
      <feOffset dy="10" input="SourceAlpha"/>
      <feGaussianBlur stdDeviation="6" result="blur"/>
      <feFlood flood-color="#002ef0" flood-opacity="0.102"/>
      <feComposite operator="in" in2="blur"/>
      <feComposite in="SourceGraphic"/>
    </filter>
  </defs>
  <g id="Icon" transform="translate(18.228 8.264)">
    <g transform="matrix(1, 0, 0, 1, -18.23, -8.26)" filter="url(#bg)">
      <g id="bg-2" data-name="bg" transform="translate(82 8) rotate(90)" fill="#2468ff">
        <path d="M 48.15153121948242 63 L 23.84847068786621 63 C 20.60174942016602 63 17.59604072570801 61.24211883544922 16.00429916381836 58.41234970092773 L 3.629300117492676 36.41234970092773 C 2.873150110244751 35.06808853149414 2.473479986190796 33.54232025146484 2.473479986190796 32 C 2.473479986190796 30.45767021179199 2.873150110244751 28.93190002441406 3.629300117492676 27.58765029907227 L 16.00431060791016 5.587649822235107 C 17.59605026245117 2.757879972457886 20.60176086425781 1 23.84848022460938 1 L 48.15151977539062 1 C 51.39825057983398 1 54.40396118164062 2.757879972457886 55.99570083618164 5.587649822235107 L 68.37069702148438 27.58765029907227 C 69.12684631347656 28.93190956115723 69.52652740478516 30.45767021179199 69.52652740478516 32 C 69.52652740478516 33.54233169555664 69.12684631347656 35.06808853149414 68.37071228027344 36.41234970092773 L 55.99570083618164 58.41234970092773 C 54.40396118164062 61.24211883544922 51.39825057983398 63 48.15153121948242 63 Z" stroke="none"/>
        <path d="M 23.84847640991211 2 C 20.96250152587891 2 18.29075622558594 3.562564849853516 16.87587738037109 6.077911376953125 L 4.500869750976562 28.07791137695312 C 3.828742980957031 29.27281188964844 3.473464965820312 30.62904357910156 3.473464965820312 32 C 3.473464965820312 33.37095642089844 3.828742980957031 34.72718811035156 4.500877380371094 35.92208862304688 L 16.8758544921875 57.92208862304688 C 18.29075622558594 60.43743133544922 20.96250152587891 62 23.84846496582031 62 L 48.15151977539062 62 C 51.03749847412109 62 53.70924377441406 60.43743133544922 55.12412261962891 57.92208862304688 L 67.49912261962891 35.92208862304688 C 68.17125701904297 34.72719955444336 68.52651977539062 33.37095642089844 68.52651977539062 32 C 68.52651977539062 30.62904357910156 68.17125701904297 29.27280044555664 67.49912261962891 28.07791137695312 L 55.12412261962891 6.077911376953125 C 53.70925521850586 3.562564849853516 51.03751373291016 2 48.15151977539062 2 L 23.84847640991211 2 M 23.84847640991211 0 L 48.15151977539062 0 C 51.76425552368164 0 55.09609985351562 1.948612213134766 56.86727905273438 5.097389221191406 L 69.24227905273438 27.09738922119141 C 70.95459747314453 30.14152145385742 70.95459747314453 33.85847854614258 69.24227905273438 36.90261077880859 L 56.86727905273438 58.90261077880859 C 55.09609985351562 62.05137634277344 51.76425552368164 64 48.15151977539062 64 L 23.84846496582031 64 C 20.23574447631836 64 16.90390014648438 62.05137634277344 15.13270950317383 58.90261077880859 L 2.757720947265625 36.90261077880859 C 1.045387268066406 33.85847854614258 1.045387268066406 30.14152145385742 2.757720947265625 27.09738922119141 L 15.13272094726562 5.097389221191406 C 16.90391159057617 1.948612213134766 20.23574447631836 0 23.84847640991211 0 Z" stroke="none" fill="#58acff"/>
      </g>
    </g>
    <path id="Icon-2" data-name="Icon" d="M686.05,801.177a.951.951,0,0,1,.211.03c1.146.4,8.359,2.192,5.8,3.745a3.07,3.07,0,0,0-.788,4.762,5.123,5.123,0,0,0,4.279,2.155c1.8,0,3.414-.94,3.363-3.024-.029-.748.27-1.039.755-1.039,1.6,0,5.213,3.184,5.544,3.439.262.2.272.371.072.617a29.507,29.507,0,0,0-3.723,5.462c-.748,1.452.565,2.745,2.012,2.907.1-.008.2-.013.3-.013,3.542,0,2.1,5.358-.68,5.526a1.843,1.843,0,0,1-.224.014c-1.537,0-1.586-2.143-3.391-2.2a2.337,2.337,0,0,0-.275-.018,1.823,1.823,0,0,0-1.642,1.074,26.894,26.894,0,0,0-2.128,5.323c-.232.8-.245,1.065-.489,1.065a5.212,5.212,0,0,1-.926-.28c-1.1-.569-7.566-2.029-5.048-3.572,3.786-2.362-.037-6.964-3.562-6.964a3.591,3.591,0,0,0-1.61.366,2.62,2.62,0,0,0-1.7,2.678c.125.649-.161,1.345-.736,1.345a1.038,1.038,0,0,1-.529-.169,29.5,29.5,0,0,1-5.075-3.542c-.261-.237-.283-.381-.046-.643a23.605,23.605,0,0,0,3.751-5.44,1.882,1.882,0,0,0-.79-2.426c-1.05-.843-2.736.042-3.361-1.388a3.339,3.339,0,0,1,2.506-4.592c.057,0,.117-.006.173-.006a1.548,1.548,0,0,1,1.378.782,2.637,2.637,0,0,0,2.183,1.417,2.426,2.426,0,0,0,2.219-1.9,24.916,24.916,0,0,0,1.861-5.163c.057-.24.147-.331.318-.331m0-2.4a2.694,2.694,0,0,0-2.649,2.167,22.687,22.687,0,0,1-1.684,4.669,2.7,2.7,0,0,0-.133.333l-.014.043a1.011,1.011,0,0,1-.062-.094,3.956,3.956,0,0,0-3.417-1.917c-.122,0-.246,0-.373.016a5.729,5.729,0,0,0-4.469,8.02,4.124,4.124,0,0,0,3.774,2.29l.093.008a21.739,21.739,0,0,1-3.086,4.312,2.734,2.734,0,0,0,.222,4.028,32.218,32.218,0,0,0,5.483,3.837,3.351,3.351,0,0,0,1.728.491,3.059,3.059,0,0,0,2.363-1.122,3.714,3.714,0,0,0,.769-2.8.429.429,0,0,1,.024-.15h0a.75.75,0,0,1,.245-.147l.109-.05a1.169,1.169,0,0,1,.539-.115,3.247,3.247,0,0,1,2.7,1.912c.05.171.088.307-.411.617a3.156,3.156,0,0,0-1.687,3.1c.277,2.413,3.107,3.356,5.844,4.269.392.129.931.31,1.082.379a1.931,1.931,0,0,0,.347.142c.144.046.264.088.366.123a3.729,3.729,0,0,0,1.29.27c1.345,0,2.248-.814,2.686-2.416l.105-.374a25.243,25.243,0,0,1,1.7-4.4l.006.008a4.019,4.019,0,0,0,3.873,1.908c3.022-.23,5.034-3.343,4.952-6.025a4.278,4.278,0,0,0-4.346-4.287,27.673,27.673,0,0,1,3.092-4.4,2.831,2.831,0,0,0,.694-2.159,2.788,2.788,0,0,0-1.124-1.911l-.15-.126c-3.244-2.709-5.232-3.815-6.861-3.815a3.093,3.093,0,0,0-2.261.932,3.417,3.417,0,0,0-.891,2.6.552.552,0,0,1-.062.3,1.434,1.434,0,0,1-.9.227,2.783,2.783,0,0,1-2.24-1.02,2.254,2.254,0,0,0-.184-.256,1,1,0,0,1-.227-.8.377.377,0,0,1,.227-.289c.061-.03.12-.064.177-.1a3.117,3.117,0,0,0,1.676-3.124c-.317-2.465-3.348-3.561-7.28-4.735-.291-.088-.52-.155-.654-.2a2.286,2.286,0,0,0-.226-.065,3.281,3.281,0,0,0-.774-.1Z" transform="translate(-659.295 -780.907)" fill="#fff"/>
  </g>
</svg>
