<svg xmlns="http://www.w3.org/2000/svg" xmlns:xlink="http://www.w3.org/1999/xlink" width="100" height="108" viewBox="0 0 100 108">
  <defs>
    <filter id="bg" x="0" y="0" width="100" height="108" filterUnits="userSpaceOnUse">
      <feOffset dy="10" input="SourceAlpha"/>
      <feGaussianBlur stdDeviation="6" result="blur"/>
      <feFlood flood-color="#002ef0" flood-opacity="0.102"/>
      <feComposite operator="in" in2="blur"/>
      <feComposite in="SourceGraphic"/>
    </filter>
  </defs>
  <g id="Icon" transform="translate(-3.772 32)">
    <g transform="matrix(1, 0, 0, 1, 3.77, -32)" filter="url(#bg)">
      <g id="bg-2" data-name="bg" transform="translate(82 8) rotate(90)" fill="#2468ff">
        <path d="M 48.15153121948242 63 L 23.84847068786621 63 C 20.60174942016602 63 17.59604072570801 61.24211883544922 16.00429916381836 58.41234970092773 L 3.629300117492676 36.41234970092773 C 2.873150110244751 35.06808853149414 2.473479986190796 33.54232025146484 2.473479986190796 32 C 2.473479986190796 30.45767021179199 2.873150110244751 28.93190002441406 3.629300117492676 27.58765029907227 L 16.00431060791016 5.587649822235107 C 17.59605026245117 2.757879972457886 20.60176086425781 1 23.84848022460938 1 L 48.15151977539062 1 C 51.39825057983398 1 54.40396118164062 2.757879972457886 55.99570083618164 5.587649822235107 L 68.37069702148438 27.58765029907227 C 69.12684631347656 28.93190956115723 69.52652740478516 30.45767021179199 69.52652740478516 32 C 69.52652740478516 33.54233169555664 69.12684631347656 35.06808853149414 68.37071228027344 36.41234970092773 L 55.99570083618164 58.41234970092773 C 54.40396118164062 61.24211883544922 51.39825057983398 63 48.15153121948242 63 Z" stroke="none"/>
        <path d="M 23.84847640991211 2 C 20.96250152587891 2 18.29075622558594 3.562564849853516 16.87587738037109 6.077911376953125 L 4.500869750976562 28.07791137695312 C 3.828742980957031 29.27281188964844 3.473464965820312 30.62904357910156 3.473464965820312 32 C 3.473464965820312 33.37095642089844 3.828742980957031 34.72718811035156 4.500877380371094 35.92208862304688 L 16.8758544921875 57.92208862304688 C 18.29075622558594 60.43743133544922 20.96250152587891 62 23.84846496582031 62 L 48.15151977539062 62 C 51.03749847412109 62 53.70924377441406 60.43743133544922 55.12412261962891 57.92208862304688 L 67.49912261962891 35.92208862304688 C 68.17125701904297 34.72719955444336 68.52651977539062 33.37095642089844 68.52651977539062 32 C 68.52651977539062 30.62904357910156 68.17125701904297 29.27280044555664 67.49912261962891 28.07791137695312 L 55.12412261962891 6.077911376953125 C 53.70925521850586 3.562564849853516 51.03751373291016 2 48.15151977539062 2 L 23.84847640991211 2 M 23.84847640991211 0 L 48.15151977539062 0 C 51.76425552368164 0 55.09609985351562 1.948612213134766 56.86727905273438 5.097389221191406 L 69.24227905273438 27.09738922119141 C 70.95459747314453 30.14152145385742 70.95459747314453 33.85847854614258 69.24227905273438 36.90261077880859 L 56.86727905273438 58.90261077880859 C 55.09609985351562 62.05137634277344 51.76425552368164 64 48.15151977539062 64 L 23.84846496582031 64 C 20.23574447631836 64 16.90390014648438 62.05137634277344 15.13270950317383 58.90261077880859 L 2.757720947265625 36.90261077880859 C 1.045387268066406 33.85847854614258 1.045387268066406 30.14152145385742 2.757720947265625 27.09738922119141 L 15.13272094726562 5.097389221191406 C 16.90391159057617 1.948612213134766 20.23574447631836 0 23.84847640991211 0 Z" stroke="none" fill="#58acff"/>
      </g>
    </g>
    <path id="Icon-2" data-name="Icon" d="M24.034,11.067l-2.306,2.307a1.215,1.215,0,1,1-1.719-1.719l2.306-2.307a4.052,4.052,0,0,0-5.73-5.73L11.722,8.481a4.047,4.047,0,0,0,.685,6.276A1.215,1.215,0,0,1,11.1,16.8,6.478,6.478,0,0,1,10,6.762L14.865,1.9a6.483,6.483,0,1,1,9.169,9.167ZM6.483,23.5a4.024,4.024,0,0,0,2.865-1.186l4.863-4.862a4.048,4.048,0,0,0-.685-6.276A1.215,1.215,0,1,1,14.838,9.13,6.479,6.479,0,0,1,15.93,19.172l-4.862,4.862A6.483,6.483,0,1,1,1.9,14.866L4.206,12.56a1.215,1.215,0,1,1,1.719,1.719L3.618,16.585A4.051,4.051,0,0,0,6.483,23.5Z" transform="translate(40.369 -0.938)" fill="#fff" fill-rule="evenodd"/>
  </g>
</svg>
