<svg xmlns="http://www.w3.org/2000/svg" xmlns:xlink="http://www.w3.org/1999/xlink" width="406.755" height="102.455" viewBox="0 0 406.755 102.455">
  <defs>
    <linearGradient id="linear-gradient" x1="0.478" y1="-0.044" x2="0.482" y2="1" gradientUnits="objectBoundingBox">
      <stop offset="0" stop-color="#fb6890"/>
      <stop offset="1" stop-color="#fcae3b"/>
    </linearGradient>
    <filter id="bg" x="0" y="0" width="406.755" height="102.455" filterUnits="userSpaceOnUse">
      <feOffset dy="8" input="SourceAlpha"/>
      <feGaussianBlur stdDeviation="6" result="blur"/>
      <feFlood flood-color="#000865" flood-opacity="0.2"/>
      <feComposite operator="in" in2="blur"/>
      <feComposite in="SourceGraphic"/>
    </filter>
    <linearGradient id="linear-gradient-2" x1="0.5" x2="0.5" y2="1" gradientUnits="objectBoundingBox">
      <stop offset="0" stop-color="#fb6890" stop-opacity="0"/>
      <stop offset="1" stop-color="#fcd73b"/>
    </linearGradient>
  </defs>
  <g id="Create_a_new_challenge" data-name="Create a new challenge" transform="translate(-741 -692)">
    <g id="Group_6565" data-name="Group 6565">
      <g transform="matrix(1, 0, 0, 1, 741, 692)" filter="url(#bg)">
        <g id="bg-2" data-name="bg" transform="translate(-894.18 -450.82)" fill="url(#linear-gradient)">
          <path d="M 1260.272705078125 525.7720336914062 C 1260.272583007812 525.7720336914062 1260.2724609375 525.7720336914062 1260.272216796875 525.7720336914062 L 1260.239868164062 525.77197265625 L 1260.224609375 525.77197265625 L 934.8914184570312 525.77197265625 L 934.8760986328125 525.77197265625 L 934.8436279296875 525.7720336914062 C 931.4673461914062 525.7720336914062 928.3291625976562 523.84912109375 926.6538696289062 520.7537231445312 L 914.9278564453125 499.0854187011719 C 913.266845703125 496.01171875 913.2723999023438 492.1984252929688 914.9418334960938 489.1328735351562 L 926.827880859375 467.3274841308594 C 927.654052734375 465.8186340332031 928.8419799804688 464.5592346191406 930.2645263671875 463.6828308105469 C 931.7001342773438 462.7984313964844 933.3377685546875 462.3261108398438 935.0004272460938 462.3169860839844 L 935.0045166015625 462.3169860839844 L 935.0086059570312 462.3169860839844 L 1260.107299804688 462.3169860839844 L 1260.111450195312 462.3169860839844 L 1260.115478515625 462.3169860839844 C 1261.778198242188 462.3261108398438 1263.415893554688 462.7984313964844 1264.851440429688 463.6828308105469 C 1266.27392578125 464.5592346191406 1267.4619140625 465.8186340332031 1268.28662109375 467.3249816894531 L 1280.173950195312 489.1323852539062 C 1281.844604492188 492.1998291015625 1281.849853515625 496.0133666992188 1280.18798828125 499.0852661132812 L 1268.462280273438 520.753662109375 C 1266.786865234375 523.8491821289062 1263.648803710938 525.7720336914062 1260.272705078125 525.7720336914062 Z" stroke="none"/>
          <path d="M 935.008544921875 463.8169555664062 C 932.1806640625 463.8324584960938 929.571533203125 465.4398803710938 928.1448974609375 468.0453491210938 L 916.2591552734375 489.8502807617188 C 914.825439453125 492.4829711914062 914.82177734375 495.7338256835938 916.2470703125 498.3715209960938 L 927.97314453125 520.039794921875 C 929.3905029296875 522.65869140625 932.01025390625 524.2720336914062 934.8436279296875 524.2720336914062 C 934.8525390625 524.2720336914062 934.861572265625 524.27197265625 934.87060546875 524.27197265625 L 1260.245239257812 524.27197265625 C 1260.254150390625 524.27197265625 1260.263427734375 524.2720336914062 1260.272216796875 524.2720336914062 C 1263.10595703125 524.2720336914062 1265.725463867188 522.658935546875 1267.14306640625 520.039794921875 L 1278.86865234375 498.3715209960938 C 1280.295654296875 495.7338256835938 1280.290771484375 492.4829711914062 1278.85693359375 489.8502807617188 L 1266.970947265625 468.0453491210938 C 1265.544311523438 465.4398803710938 1262.935424804688 463.8324584960938 1260.107299804688 463.8169555664062 L 935.008544921875 463.8169555664062 M 935.0003662109375 460.8169555664062 L 1260.123779296875 460.8170166015625 C 1262.0615234375 460.82763671875 1263.968505859375 461.3770141601562 1265.63818359375 462.4057006835938 C 1267.281982421875 463.4183959960938 1268.65283203125 464.8703002929688 1269.602294921875 466.6045532226562 L 1269.60498046875 466.6094970703125 L 1281.490966796875 488.4144287109375 C 1282.433349609375 490.1448364257812 1282.932739257812 492.1122131347656 1282.935546875 494.1047668457031 C 1282.9384765625 496.0975646972656 1282.444580078125 498.0666198730469 1281.50732421875 499.7990112304688 L 1269.781494140625 521.467529296875 C 1267.84375 525.0479736328125 1264.199951171875 527.2720336914062 1260.272216796875 527.2720336914062 L 1260.224609375 527.27197265625 L 934.843505859375 527.2720336914062 C 930.916015625 527.2720336914062 927.2724609375 525.0479125976562 925.334716796875 521.4676513671875 L 913.608642578125 499.79931640625 C 912.671630859375 498.0653686523438 912.1783447265625 496.0968627929688 912.180908203125 494.1050109863281 C 912.1837158203125 492.112060546875 912.682861328125 490.1446838378906 913.62451171875 488.4154663085938 L 925.5135498046875 466.6046142578125 C 926.4630126953125 464.870361328125 927.8338623046875 463.4183959960938 929.4776611328125 462.4057006835938 C 931.1474609375 461.3770141601562 933.0543212890625 460.82763671875 934.9920654296875 460.8170166015625 L 935.0003662109375 460.8169555664062 Z" stroke="none" fill="#fdd144"/>
        </g>
      </g>
      <g id="Lines" transform="translate(752 696)">
        <g id="_2" data-name="2" transform="translate(61.408)">
          <path id="Path_32" data-name="Path 32" d="M605.978,542.263H899.912a9.862,9.862,0,0,1,8.6,5.028l15.466,26.649a9.862,9.862,0,0,1,.056,9.957l-8.349,14.461" transform="translate(-602.759 -540.549)" fill="none" stroke="#defbff" stroke-width="2"/>
          <circle id="Ellipse_2" data-name="Ellipse 2" cx="1.714" cy="1.714" r="1.714" fill="none" stroke="#dbfafe" stroke-width="2"/>
          <circle id="Ellipse_21" data-name="Ellipse 21" cx="1.714" cy="1.714" r="1.714" transform="translate(310.627 57.6)" fill="none" stroke="#dbfafe" stroke-width="2"/>
        </g>
        <g id="_1" data-name="1" transform="translate(0 18.972)">
          <path id="Path_32-2" data-name="Path 32" d="M1296.219,598.358H990.769a9.883,9.883,0,0,1-8.611-5.028l-15.495-26.649a9.847,9.847,0,0,1-.056-9.957l8.365-14.461" transform="translate(-965.283 -539.044)" fill="none" stroke="#defbff" stroke-width="2"/>
          <circle id="Ellipse_2-2" data-name="Ellipse 2" cx="1.714" cy="1.714" r="1.714" transform="translate(330.55 57.6)" fill="none" stroke="#dbfafe" stroke-width="2"/>
          <circle id="Ellipse_21-2" data-name="Ellipse 21" cx="1.714" cy="1.714" r="1.714" transform="translate(8.536 0)" fill="none" stroke="#dbfafe" stroke-width="2"/>
        </g>
      </g>
      <path id="bg-3" data-name="bg" d="M1274.041,489.844,1263.589,470.5a6.958,6.958,0,0,0-6.036-3.751H936.33a6.96,6.96,0,0,0-6.036,3.751l-10.452,19.345a8.046,8.046,0,0,0-.011,7.565l10.312,19.223a6.9,6.9,0,0,0,6.062,3.754h321.474a6.9,6.9,0,0,0,6.061-3.754l10.312-19.223A8.042,8.042,0,0,0,1274.041,489.844Z" transform="translate(-152.65 242.175)" fill="url(#linear-gradient-2)"/>
    </g>
    <text id="Create_a_new_challenge-2" data-name="Create a new challenge" transform="translate(944 744)" fill="#fff" font-size="26" font-family="'Exo \32 '" font-weight="700"><tspan x="-142" y="0">Create a new challenge</tspan></text>
  </g>
</svg>
