<?xml version="1.0" encoding="utf-8"?>
<!-- Generator: Adobe Illustrator 26.0.2, SVG Export Plug-In . SVG Version: 6.00 Build 0)  -->
<svg version="1.1" id="Layer_1" xmlns="http://www.w3.org/2000/svg" xmlns:xlink="http://www.w3.org/1999/xlink" x="0px" y="0px"
	 viewBox="0 0 150 135.8" style="enable-background:new 0 0 150 135.8;" xml:space="preserve">
<style type="text/css">
	.st0{fill:#FFFFFF;}
	.st1{filter:url(#Border);}
</style>
<filter  filterUnits="userSpaceOnUse" height="135.773" id="Border" width="150" x="0" y="0">
	<feOffset  dy="10" input="SourceAlpha"></feOffset>
	<feGaussianBlur  result="blur" stdDeviation="6"></feGaussianBlur>
	<feFlood  flood-color="#002ef0" flood-opacity="0.102"></feFlood>
	<feComposite  in2="blur" operator="in"></feComposite>
	<feComposite  in="SourceGraphic" operator="over"></feComposite>
</filter>
<polygon class="st0" points="130.5,57.8 102.8,105.9 47.4,106 19.5,58 47.2,9.9 102.6,9.8 "/>
<g transform="matrix(1, 0, 0, 1, 0, 0)" class="st1">
	<g id="Border-2_00000032614842250203038380000006565356478571367335_" transform="translate(18 8)">
		<path class="st0" d="M34.3,3c-2.5,0-4.8,1.4-6.1,3.5L5.4,46.4c-1.2,2.1-1.2,4.8,0,6.9l22.8,39.9c1.2,2.2,3.6,3.5,6.1,3.5h45.4
			c2.5,0,4.8-1.4,6.1-3.5l22.8-39.9c1.2-2.1,1.2-4.8,0-6.9L85.8,6.5C84.5,4.4,82.2,3,79.7,3H34.3 M34.3,0h45.4c3.6,0,6.9,1.9,8.7,5
			l22.8,39.9c1.8,3.1,1.8,6.8,0,9.9L88.4,94.7c-1.8,3.1-5.1,5-8.7,5H34.3c-3.6,0-6.9-1.9-8.7-5L2.8,54.8c-1.8-3.1-1.8-6.8,0-9.9
			L25.6,5C27.4,1.9,30.7,0,34.3,0z"/>
	</g>
</g>
</svg>
