<svg xmlns="http://www.w3.org/2000/svg" xmlns:xlink="http://www.w3.org/1999/xlink" width="150" height="135.773" viewBox="0 0 150 135.773">
  <defs>
    <filter id="Border" x="0" y="0" width="150" height="135.773" filterUnits="userSpaceOnUse">
      <feOffset dy="10" input="SourceAlpha"/>
      <feGaussianBlur stdDeviation="6" result="blur"/>
      <feFlood flood-color="#002ef0" flood-opacity="0.102"/>
      <feComposite operator="in" in2="blur"/>
      <feComposite in="SourceGraphic"/>
    </filter>
  </defs>
  <g transform="matrix(1, 0, 0, 1, 0, 0)" filter="url(#Border)">
    <g id="Border-2" data-name="Border" transform="translate(18 8)" fill="none">
      <path d="M79.7,0a10,10,0,0,1,8.683,5.039l22.787,39.887a10,10,0,0,1,0,9.921L88.379,94.734A10,10,0,0,1,79.7,99.773H34.3a10,10,0,0,1-8.683-5.039L2.834,54.847a10,10,0,0,1,0-9.921L25.621,5.039A10,10,0,0,1,34.3,0Z" stroke="none"/>
      <path d="M 34.30390167236328 3 C 31.79792022705078 3 29.46894836425781 4.351722717285156 28.22585296630859 6.527633666992188 L 5.438796997070312 46.41433715820312 C 4.215187072753906 48.55617141723633 4.215187072753906 51.21723556518555 5.438796997070312 53.35906982421875 L 28.22585296630859 93.24575042724609 C 29.46894836425781 95.42168426513672 31.79792022705078 96.77340698242188 34.30390167236328 96.77340698242188 L 79.69609832763672 96.77340698242188 C 82.20208740234375 96.77340698242188 84.53105163574219 95.42168426513672 85.77415466308594 93.24575042724609 L 108.5612030029297 53.35906982421875 C 109.7848358154297 51.21723556518555 109.7848358154297 48.55617141723633 108.5612030029297 46.41433715820312 L 85.77415466308594 6.527633666992188 C 84.53105163574219 4.351722717285156 82.20208740234375 3 79.69609832763672 3 L 34.30390167236328 3 M 34.30390167236328 0 L 79.69609832763672 0 C 83.2850341796875 0 86.59873199462891 1.923233032226562 88.37903594970703 5.03948974609375 L 111.1660842895508 44.92618560791016 C 112.9221801757812 48.00006866455078 112.9221801757812 51.77333831787109 111.1660842895508 54.84722137451172 L 88.37903594970703 94.73390197753906 C 86.59873199462891 97.85015106201172 83.2850341796875 99.77340698242188 79.69609832763672 99.77340698242188 L 34.30390167236328 99.77340698242188 C 30.7149658203125 99.77340698242188 27.40126800537109 97.85015106201172 25.62096405029297 94.73390197753906 L 2.833915710449219 54.84722137451172 C 1.07781982421875 51.77333831787109 1.077835083007812 48.00005340576172 2.833915710449219 44.92618560791016 L 25.62096405029297 5.03948974609375 C 27.40126800537109 1.923233032226562 30.71498107910156 0 34.30390167236328 0 Z" stroke="none" fill="#fff"/>
    </g>
  </g>
</svg>
