<svg xmlns="http://www.w3.org/2000/svg" xmlns:xlink="http://www.w3.org/1999/xlink" width="372" height="108" viewBox="0 0 372 108">
  <defs>
    <linearGradient id="linear-gradient" x1="0.5" y1="-0.633" x2="0.5" y2="1.212" gradientUnits="objectBoundingBox">
      <stop offset="0" stop-color="#000fc6"/>
      <stop offset="1" stop-color="#0d67f8" stop-opacity="0.616"/>
    </linearGradient>
    <filter id="bg" x="0" y="0" width="372" height="108" filterUnits="userSpaceOnUse">
      <feOffset dy="1" input="SourceAlpha"/>
      <feGaussianBlur stdDeviation="0.5" result="blur"/>
      <feFlood flood-color="#fff" flood-opacity="0.294"/>
      <feComposite operator="in" in2="blur"/>
    </filter>
    <filter id="bg-2" x="0" y="0" width="372" height="108" filterUnits="userSpaceOnUse">
      <feOffset dy="2" input="SourceAlpha"/>
      <feGaussianBlur stdDeviation="1.5" result="blur-2"/>
      <feFlood flood-color="#002577" flood-opacity="0.098" result="color"/>
      <feComposite operator="out" in="SourceGraphic" in2="blur-2"/>
      <feComposite operator="in" in="color"/>
      <feComposite operator="in" in2="SourceGraphic"/>
    </filter>
    <filter id="Intersection_3" x="198.457" y="38.719" width="142.951" height="69.281" filterUnits="userSpaceOnUse">
      <feOffset dy="1" input="SourceAlpha"/>
      <feGaussianBlur stdDeviation="0.5" result="blur-3"/>
      <feFlood flood-color="#fff" flood-opacity="0.294"/>
      <feComposite operator="in" in2="blur-3"/>
    </filter>
    <filter id="Intersection_3-2" x="198.457" y="38.719" width="142.951" height="69.281" filterUnits="userSpaceOnUse">
      <feOffset dy="2" input="SourceAlpha"/>
      <feGaussianBlur stdDeviation="1.5" result="blur-4"/>
      <feFlood flood-color="#002577" flood-opacity="0.098" result="color-2"/>
      <feComposite operator="out" in="SourceGraphic" in2="blur-4"/>
      <feComposite operator="in" in="color-2"/>
      <feComposite operator="in" in2="SourceGraphic"/>
    </filter>
  </defs>
  <g id="Group_6568" data-name="Group 6568" transform="translate(-718 -447)">
    <g data-type="innerShadowGroup">
      <g transform="matrix(1, 0, 0, 1, 718, 447)" filter="url(#bg)">
        <path id="bg-3" data-name="bg" d="M838.6,546.654H517.85a10.659,10.659,0,0,1-3.784-.687,9.952,9.952,0,0,1-3.207-1.958l-13.738-12.551a8.986,8.986,0,0,1-2.144-2.93,8.321,8.321,0,0,1-.752-3.456V464.236a8.321,8.321,0,0,1,.752-3.456,8.99,8.99,0,0,1,2.144-2.93l13.738-12.55a9.947,9.947,0,0,1,3.207-1.958,10.655,10.655,0,0,1,3.784-.687H838.6a10.655,10.655,0,0,1,3.783.687,9.936,9.936,0,0,1,3.207,1.958l13.738,12.55a8.989,8.989,0,0,1,2.143,2.93,8.321,8.321,0,0,1,.752,3.456v60.836a8.321,8.321,0,0,1-.752,3.456,8.985,8.985,0,0,1-2.143,2.93l-13.738,12.551a9.941,9.941,0,0,1-3.207,1.958A10.659,10.659,0,0,1,838.6,546.654Z" transform="translate(-492.22 -441.65)" stroke="rgba(0,0,0,0)" stroke-width="1" opacity="0.6" fill="url(#linear-gradient)"/>
      </g>
      <path id="bg-4" data-name="bg" d="M838.6,546.654H517.85a10.659,10.659,0,0,1-3.784-.687,9.952,9.952,0,0,1-3.207-1.958l-13.738-12.551a8.986,8.986,0,0,1-2.144-2.93,8.321,8.321,0,0,1-.752-3.456V464.236a8.321,8.321,0,0,1,.752-3.456,8.99,8.99,0,0,1,2.144-2.93l13.738-12.55a9.947,9.947,0,0,1,3.207-1.958,10.655,10.655,0,0,1,3.784-.687H838.6a10.655,10.655,0,0,1,3.783.687,9.936,9.936,0,0,1,3.207,1.958l13.738,12.55a8.989,8.989,0,0,1,2.143,2.93,8.321,8.321,0,0,1,.752,3.456v60.836a8.321,8.321,0,0,1-.752,3.456,8.985,8.985,0,0,1-2.143,2.93l-13.738,12.551a9.941,9.941,0,0,1-3.207,1.958A10.659,10.659,0,0,1,838.6,546.654Z" transform="translate(225.775 5.346)" opacity="0.6" fill="url(#linear-gradient)"/>
      <g transform="matrix(1, 0, 0, 1, 718, 447)" filter="url(#bg-2)">
        <path id="bg-5" data-name="bg" d="M838.6,546.654H517.85a10.659,10.659,0,0,1-3.784-.687,9.952,9.952,0,0,1-3.207-1.958l-13.738-12.551a8.986,8.986,0,0,1-2.144-2.93,8.321,8.321,0,0,1-.752-3.456V464.236a8.321,8.321,0,0,1,.752-3.456,8.99,8.99,0,0,1,2.144-2.93l13.738-12.55a9.947,9.947,0,0,1,3.207-1.958,10.655,10.655,0,0,1,3.784-.687H838.6a10.655,10.655,0,0,1,3.783.687,9.936,9.936,0,0,1,3.207,1.958l13.738,12.55a8.989,8.989,0,0,1,2.143,2.93,8.321,8.321,0,0,1,.752,3.456v60.836a8.321,8.321,0,0,1-.752,3.456,8.985,8.985,0,0,1-2.143,2.93l-13.738,12.551a9.941,9.941,0,0,1-3.207,1.958A10.659,10.659,0,0,1,838.6,546.654Z" transform="translate(-492.22 -441.65)" fill="#fff" opacity="0.6"/>
      </g>
      <path id="bg-6" data-name="bg" d="M838.6,546.654H517.85a10.659,10.659,0,0,1-3.784-.687,9.952,9.952,0,0,1-3.207-1.958l-13.738-12.551a8.986,8.986,0,0,1-2.144-2.93,8.321,8.321,0,0,1-.752-3.456V464.236a8.321,8.321,0,0,1,.752-3.456,8.99,8.99,0,0,1,2.144-2.93l13.738-12.55a9.947,9.947,0,0,1,3.207-1.958,10.655,10.655,0,0,1,3.784-.687H838.6a10.655,10.655,0,0,1,3.783.687,9.936,9.936,0,0,1,3.207,1.958l13.738,12.55a8.989,8.989,0,0,1,2.143,2.93,8.321,8.321,0,0,1,.752,3.456v60.836a8.321,8.321,0,0,1-.752,3.456,8.985,8.985,0,0,1-2.143,2.93l-13.738,12.551a9.941,9.941,0,0,1-3.207,1.958A10.659,10.659,0,0,1,838.6,546.654Z" transform="translate(225.775 5.346)" fill="none" stroke="rgba(0,0,0,0)" stroke-width="1" opacity="0.6"/>
    </g>
    <g data-type="innerShadowGroup">
      <g transform="matrix(1, 0, 0, 1, 718, 447)" filter="url(#Intersection_3)">
        <path id="Intersection_3-3" data-name="Intersection 3" d="M119.738,65.282a26.564,26.564,0,0,0,.15-2.924q0-6.477-2.794-9.335t-10.668-2.731H90.043V37.084h16.383q7.619,0,9.842-2.857t2.1-8.826q0-6.224-2.667-7.938t-10.922-1.714q-10.923,0-23.368.509L80.518,2.286A172.083,172.083,0,0,1,108.076,0q15.622,0,22.1,4.445t6.476,15.875q0,9.906-2.921,15.368t-10.414,6.731v.508q8.509,1.4,12,6.667t3.619,15.3c0,.128,0,.257.006.384Zm-72.987,0q1.636-6.789,1.636-19.815,0-17.78-3.047-23.939t-11.812-6.16q-8.509,0-11.493,6.16T19.05,45.466q0,13.026,1.6,19.815H1.558A109.542,109.542,0,0,1,0,45.466Q0,20.321,7.493,10.16T33.655,0q18.8,0,26.289,10.16t7.493,35.306a109.533,109.533,0,0,1-1.558,19.815Z" transform="translate(200.46 39.72)" fill="#00e1ff" stroke="rgba(0,0,0,0)" stroke-width="1" opacity="0.2"/>
      </g>
      <path id="Intersection_3-4" data-name="Intersection 3" d="M119.738,65.282a26.564,26.564,0,0,0,.15-2.924q0-6.477-2.794-9.335t-10.668-2.731H90.043V37.084h16.383q7.619,0,9.842-2.857t2.1-8.826q0-6.224-2.667-7.938t-10.922-1.714q-10.923,0-23.368.509L80.518,2.286A172.083,172.083,0,0,1,108.076,0q15.622,0,22.1,4.445t6.476,15.875q0,9.906-2.921,15.368t-10.414,6.731v.508q8.509,1.4,12,6.667t3.619,15.3c0,.128,0,.257.006.384Zm-72.987,0q1.636-6.789,1.636-19.815,0-17.78-3.047-23.939t-11.812-6.16q-8.509,0-11.493,6.16T19.05,45.466q0,13.026,1.6,19.815H1.558A109.542,109.542,0,0,1,0,45.466Q0,20.321,7.493,10.16T33.655,0q18.8,0,26.289,10.16t7.493,35.306a109.533,109.533,0,0,1-1.558,19.815Z" transform="translate(918.458 486.719)" fill="#00e1ff" opacity="0.2"/>
      <g transform="matrix(1, 0, 0, 1, 718, 447)" filter="url(#Intersection_3-2)">
        <path id="Intersection_3-5" data-name="Intersection 3" d="M119.738,65.282a26.564,26.564,0,0,0,.15-2.924q0-6.477-2.794-9.335t-10.668-2.731H90.043V37.084h16.383q7.619,0,9.842-2.857t2.1-8.826q0-6.224-2.667-7.938t-10.922-1.714q-10.923,0-23.368.509L80.518,2.286A172.083,172.083,0,0,1,108.076,0q15.622,0,22.1,4.445t6.476,15.875q0,9.906-2.921,15.368t-10.414,6.731v.508q8.509,1.4,12,6.667t3.619,15.3c0,.128,0,.257.006.384Zm-72.987,0q1.636-6.789,1.636-19.815,0-17.78-3.047-23.939t-11.812-6.16q-8.509,0-11.493,6.16T19.05,45.466q0,13.026,1.6,19.815H1.558A109.542,109.542,0,0,1,0,45.466Q0,20.321,7.493,10.16T33.655,0q18.8,0,26.289,10.16t7.493,35.306a109.533,109.533,0,0,1-1.558,19.815Z" transform="translate(200.46 39.72)" fill="#fff" opacity="0.2"/>
      </g>
      <path id="Intersection_3-6" data-name="Intersection 3" d="M119.738,65.282a26.564,26.564,0,0,0,.15-2.924q0-6.477-2.794-9.335t-10.668-2.731H90.043V37.084h16.383q7.619,0,9.842-2.857t2.1-8.826q0-6.224-2.667-7.938t-10.922-1.714q-10.923,0-23.368.509L80.518,2.286A172.083,172.083,0,0,1,108.076,0q15.622,0,22.1,4.445t6.476,15.875q0,9.906-2.921,15.368t-10.414,6.731v.508q8.509,1.4,12,6.667t3.619,15.3c0,.128,0,.257.006.384Zm-72.987,0q1.636-6.789,1.636-19.815,0-17.78-3.047-23.939t-11.812-6.16q-8.509,0-11.493,6.16T19.05,45.466q0,13.026,1.6,19.815H1.558A109.542,109.542,0,0,1,0,45.466Q0,20.321,7.493,10.16T33.655,0q18.8,0,26.289,10.16t7.493,35.306a109.533,109.533,0,0,1-1.558,19.815Z" transform="translate(918.458 486.719)" fill="none" stroke="rgba(0,0,0,0)" stroke-width="1" opacity="0.2"/>
    </g>
  </g>
</svg>
