<svg xmlns="http://www.w3.org/2000/svg" xmlns:xlink="http://www.w3.org/1999/xlink" width="356" height="92" viewBox="0 0 356 92">
  <defs>
    <linearGradient id="linear-gradient" x1="0.5" y1="-0.633" x2="0.5" y2="1.212" gradientUnits="objectBoundingBox">
      <stop offset="0" stop-color="#000fc6"/>
      <stop offset="1" stop-color="#0d67f8" stop-opacity="0.616"/>
    </linearGradient>
    <filter id="bg" x="0" y="0" width="356" height="92" filterUnits="userSpaceOnUse">
      <feOffset dy="1" input="SourceAlpha"/>
      <feGaussianBlur stdDeviation="0.5" result="blur"/>
      <feFlood flood-color="#fff" flood-opacity="0.294"/>
      <feComposite operator="in" in2="blur"/>
    </filter>
    <filter id="bg-2" x="0" y="0" width="356" height="92" filterUnits="userSpaceOnUse">
      <feOffset dy="2" input="SourceAlpha"/>
      <feGaussianBlur stdDeviation="1.5" result="blur-2"/>
      <feFlood flood-color="#002577" flood-opacity="0.098" result="color"/>
      <feComposite operator="out" in="SourceGraphic" in2="blur-2"/>
      <feComposite operator="in" in="color"/>
      <feComposite operator="in" in2="SourceGraphic"/>
    </filter>
    <filter id="Intersection_4" x="173.568" y="22.719" width="154.494" height="69.281" filterUnits="userSpaceOnUse">
      <feOffset dy="1" input="SourceAlpha"/>
      <feGaussianBlur stdDeviation="0.5" result="blur-3"/>
      <feFlood flood-color="#fff" flood-opacity="0.294"/>
      <feComposite operator="in" in2="blur-3"/>
    </filter>
    <filter id="Intersection_4-2" x="173.568" y="22.719" width="154.494" height="69.281" filterUnits="userSpaceOnUse">
      <feOffset dy="2" input="SourceAlpha"/>
      <feGaussianBlur stdDeviation="1.5" result="blur-4"/>
      <feFlood flood-color="#002577" flood-opacity="0.098" result="color-2"/>
      <feComposite operator="out" in="SourceGraphic" in2="blur-4"/>
      <feComposite operator="in" in="color-2"/>
      <feComposite operator="in" in2="SourceGraphic"/>
    </filter>
  </defs>
  <g id="Group_6567" data-name="Group 6567" transform="translate(-718 -591)">
    <g data-type="innerShadowGroup">
      <g transform="matrix(1, 0, 0, 1, 718, 591)" filter="url(#bg)">
        <path id="bg-3" data-name="bg" d="M823.628,530.654H516.823a11.386,11.386,0,0,1-3.619-.582,9.808,9.808,0,0,1-3.068-1.657l-13.14-10.62a7.73,7.73,0,0,1-2.05-2.479,6.364,6.364,0,0,1-.72-2.924V460.916a6.364,6.364,0,0,1,.72-2.924,7.732,7.732,0,0,1,2.05-2.479l13.14-10.62a9.8,9.8,0,0,1,3.068-1.657,11.381,11.381,0,0,1,3.619-.582H823.628a11.381,11.381,0,0,1,3.618.582,9.793,9.793,0,0,1,3.068,1.657l13.14,10.62a7.731,7.731,0,0,1,2.05,2.479,6.363,6.363,0,0,1,.72,2.924v51.476a6.364,6.364,0,0,1-.72,2.924,7.729,7.729,0,0,1-2.05,2.479l-13.14,10.62a9.8,9.8,0,0,1-3.068,1.657A11.386,11.386,0,0,1,823.628,530.654Z" transform="translate(-492.22 -441.65)" stroke="rgba(0,0,0,0)" stroke-width="1" opacity="0.6" fill="url(#linear-gradient)"/>
      </g>
      <path id="bg-4" data-name="bg" d="M823.628,530.654H516.823a11.386,11.386,0,0,1-3.619-.582,9.808,9.808,0,0,1-3.068-1.657l-13.14-10.62a7.73,7.73,0,0,1-2.05-2.479,6.364,6.364,0,0,1-.72-2.924V460.916a6.364,6.364,0,0,1,.72-2.924,7.732,7.732,0,0,1,2.05-2.479l13.14-10.62a9.8,9.8,0,0,1,3.068-1.657,11.381,11.381,0,0,1,3.619-.582H823.628a11.381,11.381,0,0,1,3.618.582,9.793,9.793,0,0,1,3.068,1.657l13.14,10.62a7.731,7.731,0,0,1,2.05,2.479,6.363,6.363,0,0,1,.72,2.924v51.476a6.364,6.364,0,0,1-.72,2.924,7.729,7.729,0,0,1-2.05,2.479l-13.14,10.62a9.8,9.8,0,0,1-3.068,1.657A11.386,11.386,0,0,1,823.628,530.654Z" transform="translate(225.775 149.346)" opacity="0.6" fill="url(#linear-gradient)"/>
      <g transform="matrix(1, 0, 0, 1, 718, 591)" filter="url(#bg-2)">
        <path id="bg-5" data-name="bg" d="M823.628,530.654H516.823a11.386,11.386,0,0,1-3.619-.582,9.808,9.808,0,0,1-3.068-1.657l-13.14-10.62a7.73,7.73,0,0,1-2.05-2.479,6.364,6.364,0,0,1-.72-2.924V460.916a6.364,6.364,0,0,1,.72-2.924,7.732,7.732,0,0,1,2.05-2.479l13.14-10.62a9.8,9.8,0,0,1,3.068-1.657,11.381,11.381,0,0,1,3.619-.582H823.628a11.381,11.381,0,0,1,3.618.582,9.793,9.793,0,0,1,3.068,1.657l13.14,10.62a7.731,7.731,0,0,1,2.05,2.479,6.363,6.363,0,0,1,.72,2.924v51.476a6.364,6.364,0,0,1-.72,2.924,7.729,7.729,0,0,1-2.05,2.479l-13.14,10.62a9.8,9.8,0,0,1-3.068,1.657A11.386,11.386,0,0,1,823.628,530.654Z" transform="translate(-492.22 -441.65)" fill="#fff" opacity="0.6"/>
      </g>
      <path id="bg-6" data-name="bg" d="M823.628,530.654H516.823a11.386,11.386,0,0,1-3.619-.582,9.808,9.808,0,0,1-3.068-1.657l-13.14-10.62a7.73,7.73,0,0,1-2.05-2.479,6.364,6.364,0,0,1-.72-2.924V460.916a6.364,6.364,0,0,1,.72-2.924,7.732,7.732,0,0,1,2.05-2.479l13.14-10.62a9.8,9.8,0,0,1,3.068-1.657,11.381,11.381,0,0,1,3.619-.582H823.628a11.381,11.381,0,0,1,3.618.582,9.793,9.793,0,0,1,3.068,1.657l13.14,10.62a7.731,7.731,0,0,1,2.05,2.479,6.363,6.363,0,0,1,.72,2.924v51.476a6.364,6.364,0,0,1-.72,2.924,7.729,7.729,0,0,1-2.05,2.479l-13.14,10.62a9.8,9.8,0,0,1-3.068,1.657A11.386,11.386,0,0,1,823.628,530.654Z" transform="translate(225.775 149.346)" fill="none" stroke="rgba(0,0,0,0)" stroke-width="1" opacity="0.6"/>
    </g>
    <g data-type="innerShadowGroup">
      <g transform="matrix(1, 0, 0, 1, 718, 591)" filter="url(#Intersection_4)">
        <path id="Intersection_4-3" data-name="Intersection 4" d="M78.265,65.282a10.118,10.118,0,0,1-.541-9.528l22.732-54.1h18.288L97.916,52.07q-.888,2.159-.127,3.175a3.133,3.133,0,0,0,2.667,1.016h21.209V32.639l3.175-13.97h14.732V56.262h10.921v9.02Zm-31.515,0q1.636-6.789,1.636-19.815,0-17.78-3.048-23.939t-11.811-6.16q-8.509,0-11.494,6.16T19.049,45.466q0,13.026,1.6,19.815H1.558A109.542,109.542,0,0,1,0,45.466Q0,20.321,7.493,10.16T33.655,0q18.8,0,26.289,10.16t7.493,35.306a109.521,109.521,0,0,1-1.558,19.815Z" transform="translate(175.57 23.72)" fill="#00e1ff" stroke="rgba(0,0,0,0)" stroke-width="1" opacity="0.2"/>
      </g>
      <path id="Intersection_4-4" data-name="Intersection 4" d="M78.265,65.282a10.118,10.118,0,0,1-.541-9.528l22.732-54.1h18.288L97.916,52.07q-.888,2.159-.127,3.175a3.133,3.133,0,0,0,2.667,1.016h21.209V32.639l3.175-13.97h14.732V56.262h10.921v9.02Zm-31.515,0q1.636-6.789,1.636-19.815,0-17.78-3.048-23.939t-11.811-6.16q-8.509,0-11.494,6.16T19.049,45.466q0,13.026,1.6,19.815H1.558A109.542,109.542,0,0,1,0,45.466Q0,20.321,7.493,10.16T33.655,0q18.8,0,26.289,10.16t7.493,35.306a109.521,109.521,0,0,1-1.558,19.815Z" transform="translate(893.568 614.718)" fill="#00e1ff" opacity="0.2"/>
      <g transform="matrix(1, 0, 0, 1, 718, 591)" filter="url(#Intersection_4-2)">
        <path id="Intersection_4-5" data-name="Intersection 4" d="M78.265,65.282a10.118,10.118,0,0,1-.541-9.528l22.732-54.1h18.288L97.916,52.07q-.888,2.159-.127,3.175a3.133,3.133,0,0,0,2.667,1.016h21.209V32.639l3.175-13.97h14.732V56.262h10.921v9.02Zm-31.515,0q1.636-6.789,1.636-19.815,0-17.78-3.048-23.939t-11.811-6.16q-8.509,0-11.494,6.16T19.049,45.466q0,13.026,1.6,19.815H1.558A109.542,109.542,0,0,1,0,45.466Q0,20.321,7.493,10.16T33.655,0q18.8,0,26.289,10.16t7.493,35.306a109.521,109.521,0,0,1-1.558,19.815Z" transform="translate(175.57 23.72)" fill="#fff" opacity="0.2"/>
      </g>
      <path id="Intersection_4-6" data-name="Intersection 4" d="M78.265,65.282a10.118,10.118,0,0,1-.541-9.528l22.732-54.1h18.288L97.916,52.07q-.888,2.159-.127,3.175a3.133,3.133,0,0,0,2.667,1.016h21.209V32.639l3.175-13.97h14.732V56.262h10.921v9.02Zm-31.515,0q1.636-6.789,1.636-19.815,0-17.78-3.048-23.939t-11.811-6.16q-8.509,0-11.494,6.16T19.049,45.466q0,13.026,1.6,19.815H1.558A109.542,109.542,0,0,1,0,45.466Q0,20.321,7.493,10.16T33.655,0q18.8,0,26.289,10.16t7.493,35.306a109.521,109.521,0,0,1-1.558,19.815Z" transform="translate(893.568 614.718)" fill="none" stroke="rgba(0,0,0,0)" stroke-width="1" opacity="0.2"/>
    </g>
  </g>
</svg>
