<svg xmlns="http://www.w3.org/2000/svg" xmlns:xlink="http://www.w3.org/1999/xlink" width="388" height="108" viewBox="0 0 388 108">
  <defs>
    <linearGradient id="linear-gradient" x1="0.5" y1="-0.633" x2="0.5" y2="1.212" gradientUnits="objectBoundingBox">
      <stop offset="0" stop-color="#000fc6"/>
      <stop offset="1" stop-color="#0d67f8" stop-opacity="0.616"/>
    </linearGradient>
    <filter id="bg" x="0" y="0" width="388" height="108" filterUnits="userSpaceOnUse">
      <feOffset dy="1" input="SourceAlpha"/>
      <feGaussianBlur stdDeviation="0.5" result="blur"/>
      <feFlood flood-color="#fff" flood-opacity="0.294"/>
      <feComposite operator="in" in2="blur"/>
    </filter>
    <filter id="bg-2" x="0" y="0" width="388" height="108" filterUnits="userSpaceOnUse">
      <feOffset dy="2" input="SourceAlpha"/>
      <feGaussianBlur stdDeviation="1.5" result="blur-2"/>
      <feFlood flood-color="#002577" flood-opacity="0.098" result="color"/>
      <feComposite operator="out" in="SourceGraphic" in2="blur-2"/>
      <feComposite operator="in" in="color"/>
      <feComposite operator="in" in2="SourceGraphic"/>
    </filter>
    <filter id="Intersection_2" x="212.934" y="38.719" width="142.938" height="69.281" filterUnits="userSpaceOnUse">
      <feOffset dy="1" input="SourceAlpha"/>
      <feGaussianBlur stdDeviation="0.5" result="blur-3"/>
      <feFlood flood-color="#fff" flood-opacity="0.294"/>
      <feComposite operator="in" in2="blur-3"/>
    </filter>
    <filter id="Intersection_2-2" x="212.934" y="38.719" width="142.938" height="69.281" filterUnits="userSpaceOnUse">
      <feOffset dy="2" input="SourceAlpha"/>
      <feGaussianBlur stdDeviation="1.5" result="blur-4"/>
      <feFlood flood-color="#002577" flood-opacity="0.098" result="color-2"/>
      <feComposite operator="out" in="SourceGraphic" in2="blur-4"/>
      <feComposite operator="in" in="color-2"/>
      <feComposite operator="in" in2="SourceGraphic"/>
    </filter>
  </defs>
  <g id="Group_6569" data-name="Group 6569" transform="translate(-718 -303)">
    <g data-type="innerShadowGroup">
      <g transform="matrix(1, 0, 0, 1, 718, 303)" filter="url(#bg)">
        <path id="bg-3" data-name="bg" d="M853.574,546.654h-334.7a11.553,11.553,0,0,1-3.948-.687,10.473,10.473,0,0,1-3.347-1.958l-14.335-12.551a9.016,9.016,0,0,1-2.237-2.93,8.03,8.03,0,0,1-.785-3.456V464.236a8.03,8.03,0,0,1,.785-3.456,9.02,9.02,0,0,1,2.237-2.93l14.335-12.55a10.467,10.467,0,0,1,3.347-1.958,11.548,11.548,0,0,1,3.948-.687h334.7a11.548,11.548,0,0,1,3.947.687,10.457,10.457,0,0,1,3.347,1.958L875.2,457.85a9.018,9.018,0,0,1,2.237,2.93,8.029,8.029,0,0,1,.785,3.456v60.836a8.03,8.03,0,0,1-.785,3.456,9.015,9.015,0,0,1-2.237,2.93l-14.335,12.551a10.462,10.462,0,0,1-3.347,1.958A11.553,11.553,0,0,1,853.574,546.654Z" transform="translate(-492.22 -441.65)" stroke="rgba(0,0,0,0)" stroke-width="1" opacity="0.6" fill="url(#linear-gradient)"/>
      </g>
      <path id="bg-4" data-name="bg" d="M853.574,546.654h-334.7a11.553,11.553,0,0,1-3.948-.687,10.473,10.473,0,0,1-3.347-1.958l-14.335-12.551a9.016,9.016,0,0,1-2.237-2.93,8.03,8.03,0,0,1-.785-3.456V464.236a8.03,8.03,0,0,1,.785-3.456,9.02,9.02,0,0,1,2.237-2.93l14.335-12.55a10.467,10.467,0,0,1,3.347-1.958,11.548,11.548,0,0,1,3.948-.687h334.7a11.548,11.548,0,0,1,3.947.687,10.457,10.457,0,0,1,3.347,1.958L875.2,457.85a9.018,9.018,0,0,1,2.237,2.93,8.029,8.029,0,0,1,.785,3.456v60.836a8.03,8.03,0,0,1-.785,3.456,9.015,9.015,0,0,1-2.237,2.93l-14.335,12.551a10.462,10.462,0,0,1-3.347,1.958A11.553,11.553,0,0,1,853.574,546.654Z" transform="translate(225.775 -138.654)" opacity="0.6" fill="url(#linear-gradient)"/>
      <g transform="matrix(1, 0, 0, 1, 718, 303)" filter="url(#bg-2)">
        <path id="bg-5" data-name="bg" d="M853.574,546.654h-334.7a11.553,11.553,0,0,1-3.948-.687,10.473,10.473,0,0,1-3.347-1.958l-14.335-12.551a9.016,9.016,0,0,1-2.237-2.93,8.03,8.03,0,0,1-.785-3.456V464.236a8.03,8.03,0,0,1,.785-3.456,9.02,9.02,0,0,1,2.237-2.93l14.335-12.55a10.467,10.467,0,0,1,3.347-1.958,11.548,11.548,0,0,1,3.948-.687h334.7a11.548,11.548,0,0,1,3.947.687,10.457,10.457,0,0,1,3.347,1.958L875.2,457.85a9.018,9.018,0,0,1,2.237,2.93,8.029,8.029,0,0,1,.785,3.456v60.836a8.03,8.03,0,0,1-.785,3.456,9.015,9.015,0,0,1-2.237,2.93l-14.335,12.551a10.462,10.462,0,0,1-3.347,1.958A11.553,11.553,0,0,1,853.574,546.654Z" transform="translate(-492.22 -441.65)" fill="#fff" opacity="0.6"/>
      </g>
      <path id="bg-6" data-name="bg" d="M853.574,546.654h-334.7a11.553,11.553,0,0,1-3.948-.687,10.473,10.473,0,0,1-3.347-1.958l-14.335-12.551a9.016,9.016,0,0,1-2.237-2.93,8.03,8.03,0,0,1-.785-3.456V464.236a8.03,8.03,0,0,1,.785-3.456,9.02,9.02,0,0,1,2.237-2.93l14.335-12.55a10.467,10.467,0,0,1,3.347-1.958,11.548,11.548,0,0,1,3.948-.687h334.7a11.548,11.548,0,0,1,3.947.687,10.457,10.457,0,0,1,3.347,1.958L875.2,457.85a9.018,9.018,0,0,1,2.237,2.93,8.029,8.029,0,0,1,.785,3.456v60.836a8.03,8.03,0,0,1-.785,3.456,9.015,9.015,0,0,1-2.237,2.93l-14.335,12.551a10.462,10.462,0,0,1-3.347,1.958A11.553,11.553,0,0,1,853.574,546.654Z" transform="translate(225.775 -138.654)" fill="none" stroke="rgba(0,0,0,0)" stroke-width="1" opacity="0.6"/>
    </g>
    <g data-type="innerShadowGroup">
      <g transform="matrix(1, 0, 0, 1, 718, 303)" filter="url(#Intersection_2)">
        <path id="Intersection_2-3" data-name="Intersection 2" d="M87.118,65.282,103.631,47.5q15.748-16.384,15.621-25.019-.127-3.683-2.794-4.763t-9.144-1.079q-13.461,0-26.416,1.143L80.137,3.175A145.055,145.055,0,0,1,109.6.128q14.733,0,22.035,4.317t7.3,16a32.13,32.13,0,0,1-2.857,13.907q-2.858,6.033-11.366,15.05L109.44,65.282Zm-40.368,0q1.636-6.789,1.636-19.815,0-17.78-3.048-23.939t-11.811-6.16q-8.509,0-11.494,6.16T19.049,45.466q0,13.026,1.6,19.815H1.558A109.542,109.542,0,0,1,0,45.466Q0,20.321,7.493,10.16T33.655,0q18.8,0,26.289,10.16t7.493,35.306a109.521,109.521,0,0,1-1.558,19.815Z" transform="translate(214.93 39.72)" fill="#00e1ff" stroke="rgba(0,0,0,0)" stroke-width="1" opacity="0.2"/>
      </g>
      <path id="Intersection_2-4" data-name="Intersection 2" d="M87.118,65.282,103.631,47.5q15.748-16.384,15.621-25.019-.127-3.683-2.794-4.763t-9.144-1.079q-13.461,0-26.416,1.143L80.137,3.175A145.055,145.055,0,0,1,109.6.128q14.733,0,22.035,4.317t7.3,16a32.13,32.13,0,0,1-2.857,13.907q-2.858,6.033-11.366,15.05L109.44,65.282Zm-40.368,0q1.636-6.789,1.636-19.815,0-17.78-3.048-23.939t-11.811-6.16q-8.509,0-11.494,6.16T19.049,45.466q0,13.026,1.6,19.815H1.558A109.542,109.542,0,0,1,0,45.466Q0,20.321,7.493,10.16T33.655,0q18.8,0,26.289,10.16t7.493,35.306a109.521,109.521,0,0,1-1.558,19.815Z" transform="translate(932.934 342.719)" fill="#00e1ff" opacity="0.2"/>
      <g transform="matrix(1, 0, 0, 1, 718, 303)" filter="url(#Intersection_2-2)">
        <path id="Intersection_2-5" data-name="Intersection 2" d="M87.118,65.282,103.631,47.5q15.748-16.384,15.621-25.019-.127-3.683-2.794-4.763t-9.144-1.079q-13.461,0-26.416,1.143L80.137,3.175A145.055,145.055,0,0,1,109.6.128q14.733,0,22.035,4.317t7.3,16a32.13,32.13,0,0,1-2.857,13.907q-2.858,6.033-11.366,15.05L109.44,65.282Zm-40.368,0q1.636-6.789,1.636-19.815,0-17.78-3.048-23.939t-11.811-6.16q-8.509,0-11.494,6.16T19.049,45.466q0,13.026,1.6,19.815H1.558A109.542,109.542,0,0,1,0,45.466Q0,20.321,7.493,10.16T33.655,0q18.8,0,26.289,10.16t7.493,35.306a109.521,109.521,0,0,1-1.558,19.815Z" transform="translate(214.93 39.72)" fill="#fff" opacity="0.2"/>
      </g>
      <path id="Intersection_2-6" data-name="Intersection 2" d="M87.118,65.282,103.631,47.5q15.748-16.384,15.621-25.019-.127-3.683-2.794-4.763t-9.144-1.079q-13.461,0-26.416,1.143L80.137,3.175A145.055,145.055,0,0,1,109.6.128q14.733,0,22.035,4.317t7.3,16a32.13,32.13,0,0,1-2.857,13.907q-2.858,6.033-11.366,15.05L109.44,65.282Zm-40.368,0q1.636-6.789,1.636-19.815,0-17.78-3.048-23.939t-11.811-6.16q-8.509,0-11.494,6.16T19.049,45.466q0,13.026,1.6,19.815H1.558A109.542,109.542,0,0,1,0,45.466Q0,20.321,7.493,10.16T33.655,0q18.8,0,26.289,10.16t7.493,35.306a109.521,109.521,0,0,1-1.558,19.815Z" transform="translate(932.934 342.719)" fill="none" stroke="rgba(0,0,0,0)" stroke-width="1" opacity="0.2"/>
    </g>
  </g>
</svg>
